<svg width="83" height="83" viewBox="0 0 83 83" fill="none" xmlns="http://www.w3.org/2000/svg">
<g opacity="0.5">
<path d="M56.7652 63.383L39.3929 73.2926C34.1377 76.2903 29.6021 75.0496 26.6044 69.7944L16.6948 52.422C13.6972 47.1669 14.9378 42.6313 20.193 39.6336L31.0507 33.4401C31.9411 32.9322 33.1005 33.2494 33.6084 34.1397L47.2341 58.0268C49.1913 61.4578 51.4761 62.0828 54.9072 60.1257C55.7975 59.6178 56.957 59.935 57.4649 60.8253C57.9727 61.7156 57.6556 62.8751 56.7652 63.383ZM22.051 42.8909C18.62 44.8481 17.995 47.1329 19.9521 50.564L29.8617 67.9364C31.8189 71.3674 34.1038 71.9924 37.5348 70.0353L47.9582 64.0895C46.4456 63.2542 45.104 61.8609 43.9768 59.8848L31.2801 37.6265L22.051 42.8909Z" fill="#2B792E"/>
<path d="M32.9088 36.6974L22.051 42.8909C21.1607 43.3988 20.0012 43.0816 19.4933 42.1913L17.0159 37.8482C15.1331 34.5475 16.2805 30.3528 19.5813 28.47L26.3347 24.6177C26.8342 24.3328 27.4482 24.299 27.9752 24.5165C28.5146 24.7557 28.9204 25.215 29.0626 25.7671C29.2049 26.3191 29.4711 26.8868 29.8923 27.6251L33.6084 34.1397C34.1163 35.0301 33.7991 36.1896 32.9088 36.6974ZM21.8216 38.7046L29.422 34.3691L26.635 29.4831C26.5235 29.2877 26.4244 29.114 26.3253 28.9403L21.4393 31.7273C19.9409 32.582 19.4185 34.4918 20.2732 35.9902L21.8216 38.7046Z" fill="#2B792E"/>
<path d="M47.7884 42.6004C46.898 43.1082 45.7386 42.7911 45.2307 41.9007L39.0372 31.043C38.5293 30.1526 38.8465 28.9932 39.7368 28.4853C40.6271 27.9774 41.7866 28.2946 42.2945 29.1849L48.488 40.0427C48.9959 40.933 48.6787 42.0925 47.7884 42.6004Z" fill="#2B792E"/>
<path d="M56.4747 37.6455C55.5843 38.1534 54.4248 37.8362 53.917 36.9459L47.7235 26.0882C47.2156 25.1978 47.5328 24.0384 48.4231 23.5305C49.3134 23.0226 50.4729 23.3398 50.9808 24.2301L57.1743 35.0879C57.6822 35.9782 57.365 37.1377 56.4747 37.6455Z" fill="#2B792E"/>
<path d="M67.6229 57.1895L58.9367 62.1443C58.0464 62.6521 56.8869 62.335 56.379 61.4446L51.4242 52.7585C50.235 50.6738 50.972 47.9797 53.0567 46.7905L57.3998 44.3131C59.4845 43.124 62.1786 43.8609 63.3677 45.9456L68.3225 54.6318C68.8304 55.5221 68.5132 56.6816 67.6229 57.1895ZM58.7073 57.9579L64.1362 54.8612L60.1104 47.8036C59.937 47.4996 59.5618 47.397 59.2578 47.5704L54.9147 50.0478C54.6107 50.2213 54.5081 50.5964 54.6815 50.9004L58.7073 57.9579Z" fill="#2B792E"/>
<path d="M35.3708 61.1962C34.4805 61.704 33.321 61.3869 32.8132 60.4965L27.8583 51.8103C27.3505 50.92 27.6676 49.7605 28.558 49.2526C29.4483 48.7448 30.6078 49.0619 31.1157 49.9523L36.0705 58.6385C36.5783 59.5288 36.2612 60.6883 35.3708 61.1962Z" fill="#2B792E"/>
<path d="M69.7944 55.9508L56.7651 63.383C51.51 66.3806 46.9744 65.14 43.9767 59.8848L26.6349 29.4831C23.6372 24.228 24.8779 19.6924 30.133 16.6947L43.1623 9.26251C48.4175 6.26485 52.9531 7.50553 55.9508 12.7607L73.2926 43.1623C76.2902 48.4175 75.0496 52.9531 69.7944 55.9508ZM31.9911 19.952C28.5601 21.9092 27.935 24.1941 29.8922 27.6251L47.234 58.0268C49.1912 61.4578 51.476 62.0828 54.9071 60.1257L67.9364 52.6935C71.3674 50.7363 71.9924 48.4514 70.0353 45.0204L52.6934 14.6187C50.7363 11.1877 48.4514 10.5627 45.0204 12.5198L31.9911 19.952Z" fill="#2B792E"/>
</g>
</svg>
