<svg width="20" height="26" viewBox="0 0 20 26" fill="none" xmlns="http://www.w3.org/2000/svg">
<path d="M5.17901 0.305606L4.03181 0.651206C3.01033 0.959252 2.09811 1.55269 1.40251 2.36167C0.706914 3.17065 0.25689 4.1615 0.105406 5.21761C-0.369794 8.52641 0.692606 12.3952 3.25421 16.832C5.80941 21.2576 8.62221 24.1088 11.7182 25.3568C12.713 25.7577 13.8019 25.8646 14.8556 25.6646C15.9094 25.4646 16.8835 24.9663 17.6622 24.2288L18.5294 23.4064C19.0925 22.8735 19.443 22.1542 19.5157 21.3823C19.5884 20.6104 19.3783 19.8383 18.9246 19.2096L16.755 16.2016C16.4617 15.7955 16.0486 15.4914 15.5738 15.3319C15.0989 15.1723 14.586 15.1654 14.107 15.312L10.8254 16.3152L10.7406 16.3312C10.379 16.384 9.54381 15.6016 8.50381 13.8C7.4158 11.9152 7.19181 10.8128 7.49101 10.528L9.15981 8.97121C9.77007 8.40234 10.1869 7.65671 10.3519 6.83891C10.5169 6.02112 10.4218 5.17218 10.0798 4.41121L9.02061 2.05761C8.7021 1.34935 8.13692 0.781091 7.43041 0.458745C6.7239 0.1364 5.92268 0.0819715 5.17901 0.305606ZM7.56461 2.71361L8.6206 5.06721C8.82626 5.52358 8.88377 6.03291 8.78505 6.52365C8.68633 7.01439 8.43634 7.46186 8.0702 7.80321L6.39661 9.36161C5.32461 10.376 5.67981 12.1072 7.11981 14.6C8.4734 16.9456 9.7086 18.104 11.0366 17.9024L11.235 17.8608L14.5758 16.8416C14.7355 16.7926 14.9065 16.7947 15.0649 16.8478C15.2233 16.9009 15.3611 17.0022 15.459 17.1376L17.6286 20.1456C17.8558 20.4599 17.9611 20.8461 17.9249 21.2322C17.8887 21.6183 17.7135 21.9782 17.4318 22.2448L16.563 23.0672C16.0068 23.5936 15.3111 23.9493 14.5586 24.092C13.8061 24.2347 13.0285 24.1583 12.3182 23.872C9.60141 22.7776 7.03341 20.1744 4.64141 16.032C2.24301 11.88 1.27181 8.34881 1.68941 5.44481C1.79751 4.69029 2.11893 3.98237 2.61584 3.4044C3.11274 2.82642 3.76444 2.40245 4.49421 2.18241L5.64141 1.83681C6.01334 1.72504 6.41322 1.75237 6.76649 1.9137C7.11976 2.07503 7.40229 2.35933 7.56141 2.71361" fill="white"/>
</svg>
