<svg width="40" height="40" viewBox="0 0 40 40" fill="none" xmlns="http://www.w3.org/2000/svg">
<path d="M24.05 31.3669C23.7333 31.3669 23.4167 31.2502 23.1667 31.0002C22.6833 30.5169 22.6833 29.7169 23.1667 29.2335L32.4 20.0002L23.1667 10.7669C22.6833 10.2835 22.6833 9.48353 23.1667 9.0002C23.65 8.51686 24.45 8.51686 24.9333 9.0002L35.05 19.1169C35.5333 19.6002 35.5333 20.4002 35.05 20.8835L24.9333 31.0002C24.6833 31.2502 24.3667 31.3669 24.05 31.3669Z" fill="white"/>
<path d="M33.8833 21.25H5.83334C5.15001 21.25 4.58334 20.6833 4.58334 20C4.58334 19.3167 5.15001 18.75 5.83334 18.75H33.8833C34.5667 18.75 35.1333 19.3167 35.1333 20C35.1333 20.6833 34.5667 21.25 33.8833 21.25Z" fill="white"/>
</svg>
