<svg width="32" height="31" viewBox="0 0 32 31" fill="none" xmlns="http://www.w3.org/2000/svg">
<g opacity="0.8">
<rect x="2.78226" y="1.9043" width="26.6594" height="26.6594" rx="5.64771" fill="#2B792E"/>
<rect x="2.78226" y="1.9043" width="26.6594" height="26.6594" rx="5.64771" fill="#2B792E"/>
<rect x="2.78226" y="1.9043" width="26.6594" height="26.6594" rx="5.64771" fill="#2B792E"/>
<path d="M22.7768 9.99695C22.7768 10.7857 22.1374 11.4251 21.3486 11.4251C20.5599 11.4251 19.9205 10.7857 19.9205 9.99695C19.9205 9.20819 20.5599 8.56877 21.3486 8.56877C22.1374 8.56877 22.7768 9.20819 22.7768 9.99695Z" fill="white"/>
<path fill-rule="evenodd" clip-rule="evenodd" d="M16.112 19.9942C18.7412 19.9942 20.8726 17.8628 20.8726 15.2336C20.8726 12.6044 18.7412 10.473 16.112 10.473C13.4828 10.473 11.3514 12.6044 11.3514 15.2336C11.3514 17.8628 13.4828 19.9942 16.112 19.9942ZM16.112 18.09C17.6895 18.09 18.9683 16.8111 18.9683 15.2336C18.9683 13.6561 17.6895 12.3773 16.112 12.3773C14.5344 12.3773 13.2556 13.6561 13.2556 15.2336C13.2556 16.8111 14.5344 18.09 16.112 18.09Z" fill="white"/>
<path fill-rule="evenodd" clip-rule="evenodd" d="M6.59076 14.8528C6.59076 11.6533 6.59076 10.0536 7.21341 8.83161C7.76111 7.75669 8.63504 6.88275 9.70996 6.33505C10.932 5.7124 12.5317 5.7124 15.7311 5.7124H16.4928C19.6923 5.7124 21.292 5.7124 22.514 6.33505C23.5889 6.88275 24.4628 7.75669 25.0105 8.83161C25.6332 10.0536 25.6332 11.6533 25.6332 14.8528V15.6145C25.6332 18.8139 25.6332 20.4136 25.0105 21.6356C24.4628 22.7105 23.5889 23.5845 22.514 24.1322C21.292 24.7548 19.6923 24.7548 16.4928 24.7548H15.7311C12.5317 24.7548 10.932 24.7548 9.70996 24.1322C8.63504 23.5845 7.76111 22.7105 7.21341 21.6356C6.59076 20.4136 6.59076 18.8139 6.59076 15.6145V14.8528ZM15.7311 7.61665H16.4928C18.124 7.61665 19.2328 7.61813 20.0899 7.68815C20.9247 7.75636 21.3517 7.88 21.6495 8.03175C22.3661 8.39688 22.9487 8.9795 23.3138 9.69611C23.4656 9.99394 23.5892 10.4209 23.6574 11.2557C23.7275 12.1128 23.7289 13.2216 23.7289 14.8528V15.6145C23.7289 17.2456 23.7275 18.3544 23.6574 19.2115C23.5892 20.0464 23.4656 20.4733 23.3138 20.7711C22.9487 21.4877 22.3661 22.0704 21.6495 22.4355C21.3517 22.5872 20.9247 22.7109 20.0899 22.7791C19.2328 22.8491 18.124 22.8506 16.4928 22.8506H15.7311C14.1 22.8506 12.9912 22.8491 12.1341 22.7791C11.2992 22.7109 10.8723 22.5872 10.5745 22.4355C9.85786 22.0704 9.27523 21.4877 8.9101 20.7711C8.75835 20.4733 8.63472 20.0464 8.56651 19.2115C8.49648 18.3544 8.495 17.2456 8.495 15.6145V14.8528C8.495 13.2216 8.49648 12.1128 8.56651 11.2557C8.63472 10.4209 8.75835 9.99394 8.9101 9.69611C9.27523 8.9795 9.85786 8.39688 10.5745 8.03175C10.8723 7.88 11.2992 7.75636 12.1341 7.68815C12.9912 7.61813 14.1 7.61665 15.7311 7.61665Z" fill="white"/>
</g>
</svg>
