<svg width="31" height="31" viewBox="0 0 31 31" fill="none" xmlns="http://www.w3.org/2000/svg">
<g opacity="0.8">
<rect x="1.86932" y="1.52344" width="26.6594" height="26.6594" rx="6.09358" fill="#2B792E"/>
<path d="M12.3603 9.22832C12.3603 10.1181 11.5891 10.8395 10.6377 10.8395C9.68627 10.8395 8.91501 10.1181 8.91501 9.22832C8.91501 8.33852 9.68627 7.61719 10.6377 7.61719C11.5891 7.61719 12.3603 8.33852 12.3603 9.22832Z" fill="white"/>
<path d="M9.15059 12.0237H12.0953V20.9469H9.15059V12.0237Z" fill="white"/>
<path d="M16.8363 12.0237H13.8916V20.9469H16.8363C16.8363 20.9469 16.8363 18.1377 16.8363 16.3813C16.8363 15.3271 17.1962 14.2683 18.6325 14.2683C20.2557 14.2683 20.246 15.6479 20.2384 16.7167C20.2285 18.1138 20.2521 19.5395 20.2521 20.9469H23.1968V16.2374C23.1719 13.2303 22.3883 11.8447 19.8104 11.8447C18.2795 11.8447 17.3305 12.5397 16.8363 13.1685V12.0237Z" fill="white"/>
</g>
</svg>
