<svg width="31" height="31" viewBox="0 0 31 31" fill="none" xmlns="http://www.w3.org/2000/svg">
<g opacity="0.8">
<path d="M11.6345 26.6595C8.55435 26.6595 5.68316 25.7637 3.26651 24.2179C5.31833 24.3507 8.93932 24.0327 11.1916 21.8844C7.80344 21.729 6.27546 19.1304 6.07616 18.02C6.36404 18.131 7.73701 18.2643 8.51207 17.9533C4.61462 16.9761 4.01671 13.5558 4.14958 12.5119C4.88035 13.0228 6.12045 13.2004 6.60763 13.156C2.97592 10.5575 4.28245 6.64857 4.92464 5.8046C7.53089 9.41535 11.4369 11.4433 16.269 11.5561C16.1779 11.1565 16.1298 10.7405 16.1298 10.3132C16.1298 7.24665 18.6084 4.76074 21.666 4.76074C23.2635 4.76074 24.703 5.43937 25.7134 6.52487C26.781 6.27472 28.3876 5.68913 29.173 5.18273C28.7771 6.60415 27.5446 7.78991 26.7991 8.22939C26.793 8.21438 26.8052 8.24434 26.7991 8.22939C27.4539 8.13033 29.2259 7.78979 29.9259 7.31486C29.5797 8.1134 28.273 9.44111 27.2007 10.1844C27.4002 18.9836 20.6679 26.6595 11.6345 26.6595Z" fill="#2B792E"/>
</g>
</svg>
